<?xml version="1.0" encoding="iso-8859-1"?>
<!-- Generator: Adobe Illustrator 19.0.0, SVG Export Plug-In . SVG Version: 6.00 Build 0)  -->
<svg version="1.1" id="Layer_1" xmlns="http://www.w3.org/2000/svg" xmlns:xlink="http://www.w3.org/1999/xlink" x="0px" y="0px"
	 viewBox="0 0 512 512" style="enable-background:new 0 0 512 512;" xml:space="preserve">
<g>
	<g>
		<rect x="300.522" y="150.261" width="133.565" height="33.391"/>
	</g>
</g>
<g>
	<g>
		<rect x="300.522" y="328.348" width="133.565" height="33.391"/>
	</g>
</g>
<g>
	<g>
		<rect x="300.522" y="239.304" width="133.565" height="33.391"/>
	</g>
</g>
<g>
	<g>
		<rect x="77.913" y="161.391" width="33.391" height="122.435"/>
	</g>
</g>
<g>
	<g>
		<rect x="222.609" y="161.391" width="33.391" height="122.435"/>
	</g>
</g>
<g>
	<g>
		<rect x="111.304" y="128" width="111.304" height="33.391"/>
	</g>
</g>
<g>
	<g>
		<polygon points="222.609,317.217 222.609,350.609 111.304,350.609 111.304,317.217 77.913,317.217 77.913,384 256,384 
			256,317.217 		"/>
	</g>
</g>
<g>
	<g>
		<rect x="111.304" y="283.826" width="33.391" height="33.391"/>
	</g>
</g>
<g>
	<g>
		<rect x="189.217" y="283.826" width="33.391" height="33.391"/>
	</g>
</g>
<g>
	<g>
		<path d="M0,61.217v389.565h512V61.217H0z M478.609,417.391H33.391V94.609h445.217V417.391z"/>
	</g>
</g>
<g>
</g>
<g>
</g>
<g>
</g>
<g>
</g>
<g>
</g>
<g>
</g>
<g>
</g>
<g>
</g>
<g>
</g>
<g>
</g>
<g>
</g>
<g>
</g>
<g>
</g>
<g>
</g>
<g>
</g>
</svg>
