<?xml version="1.0" standalone="no"?>
<!DOCTYPE svg PUBLIC "-//W3C//DTD SVG 20010904//EN"
 "http://www.w3.org/TR/2001/REC-SVG-20010904/DTD/svg10.dtd">
<svg version="1.0" xmlns="http://www.w3.org/2000/svg"
 width="50px" height="50px" viewBox="0 0 360.000000 360.000000"
 preserveAspectRatio="xMidYMid meet">

<g transform="translate(0.000000,360.000000) scale(0.100000,-0.100000)"
fill="#000000" stroke="none">
<path d="M1657 2690 c-291 -52 -534 -234 -662 -493 -71 -145 -89 -224 -89
-402 1 -134 4 -159 28 -240 94 -310 333 -544 641 -627 114 -30 336 -30 450 0
252 68 466 243 580 475 70 143 89 224 89 397 0 173 -19 254 -89 397 -115 233
-330 409 -580 474 -90 23 -288 34 -368 19z m311 -95 c265 -55 493 -249 591
-503 38 -101 51 -174 51 -296 0 -167 -41 -305 -131 -443 -36 -54 -44 -62 -50
-47 -4 11 -17 47 -29 80 -49 140 -170 274 -312 344 l-83 41 -41 -20 c-23 -11
-69 -25 -103 -30 -73 -12 -164 0 -225 30 l-41 20 -83 -41 c-142 -70 -263 -204
-312 -344 -12 -33 -25 -69 -29 -80 -6 -15 -14 -7 -50 47 -53 81 -98 188 -116
275 -19 86 -19 258 0 345 64 302 316 555 619 622 83 18 259 18 344 0z"/>
<path d="M1710 2431 c-97 -32 -175 -106 -211 -200 -46 -123 -6 -273 96 -356
160 -130 402 -80 491 101 58 119 39 260 -48 358 -60 69 -125 99 -223 102 -44
2 -91 0 -105 -5z"/>
</g>
</svg>
